<?xml version="1.0" encoding="UTF-8"?>
<svg width="32" height="32" viewBox="0 0 32 32" fill="none" xmlns="http://www.w3.org/2000/svg">
  <circle cx="16" cy="16" r="15" fill="#000000" stroke="#F5E6D3"/>
  <path d="M8 12C8 10.8954 8.89543 10 10 10H22C23.1046 10 24 10.8954 24 12V20C24 21.1046 23.1046 22 22 22H10C8.89543 22 8 21.1046 8 20V12Z" fill="#FF69B4"/>
  <path d="M12 14H20V18H12V14Z" fill="#4DA6FF"/>
  <path d="M10 8C10 7.44772 10.4477 7 11 7H21C21.5523 7 22 7.44772 22 8V10H10V8Z" fill="#F5E6D3"/>
  <circle cx="24" cy="8" r="1" fill="#F5E6D3"/>
  <circle cx="8" cy="8" r="1" fill="#F5E6D3"/>
  <circle cx="22" cy="24" r="1" fill="#F5E6D3"/>
  <circle cx="10" cy="24" r="1" fill="#F5E6D3"/>
</svg>
